<svg clip-rule="evenodd" fill-rule="evenodd" stroke-linejoin="round" stroke-miterlimit="2" viewBox="0 0 2244 2246" xmlns="http://www.w3.org/2000/svg">
  <path d="m2528.8 731.975c0-68.064-74.66-123.324-166.63-123.324h-1113.3c-91.97 0-166.63 55.26-166.63 123.324v410.955c-.16-.04 1446.41.98 1446.32.99z" fill="#f9a825" transform="matrix(.5409 .541166 -.731222 .730863 1373.146 -1080.92)"/>
  <path d="m2526.78 876.511c-.09.133-1444.43.389-1444.77 1.096l.23 414.513c0 68.07 74.61 123.33 166.52 123.33h1113.52c91.91 0 166.52-55.26 166.52-123.33z" fill="#02a9f4" transform="matrix(.54127 .541535 -.731222 .730863 396.456 -105.11)"/>
  <path d="m2528.08 880.052c-.34.142-1445.92-4.821-1446.05-4.843l.21 416.911c0 68.07 74.66 123.33 166.63 123.33h1113.3c91.97 0 166.63-55.26 166.63-123.33z" fill="#4db050" transform="matrix(-.53903 .543028 -.733739 -.728337 2348.836 390.402)"/>
  <path d="m2528.8 731.975c0-68.064-74.66-123.324-166.63-123.324h-1113.3c-91.97 0-166.63 55.26-166.63 123.324l.06 409.725c-.05-.04 1443.3 4.54 1443.28 4.54z" fill="#ec407a" transform="matrix(-.53903 .543028 -.733739 -.728337 3325.516 1367.237)"/>
  <path d="m2528.8 705.544c0-53.477-77.81-96.893-173.66-96.893h-1099.24c-95.85 0-173.66 43.416-173.66 96.893v613.016c0 53.47 77.81 96.89 173.66 96.89h1099.24c95.85 0 173.66-43.42 173.66-96.89z" fill="#f1f1f1" transform="matrix(-.406036 .405029 -.725946 -.727751 2589.276 1128.697)"/>
</svg>