<svg
  xmlns="http://www.w3.org/2000/svg"
  fill-rule="evenodd"
  viewBox="0 0 48 48"
>
  <path
    fill="black"
    d="m1.865 5.149 44.289 1e-3c1.134-0 1.844 1.162 1.844 1.771 0 0.608-4e-3 25.663-4e-3 26.464s-0.831 1.75-1.631 1.75c-0.702 0-43.873-4e-3 -44.664-4e-3 -1.063-0-1.697-1.418-1.697-1.945s-2e-3 -25.909-2e-3 -25.909c-0-0.416 0.522-2.108 1.865-2.128zm2.229 4.089v22.074h40.003v-22.074h-40.003zm4.916 30.948h13.057v-4.413h4.046l-2e-3 4.413s11.761-3e-3 13.249 2e-3c2.19 7e-3 2.2 2.58 2.2 2.58l-34.757-7e-3s-0.015-2.575 2.207-2.575z"
  />
  <path
    fill="white"
    d="m44.097 9.238h-40.003v22.074h40.003v-22.074" 
  />
</svg>