<svg
  xmlns="http://www.w3.org/2000/svg"
  fill-rule="evenodd"
  viewBox="0 0 24 24"
>
  <path
    fill="#fff"
    d="m8.606 21.277 5.38-1.82-.614-1.818 1.667-.564.614 1.818s4.846-1.64 5.46-1.845c.903-.302 1.266.756 1.266.756L8.055 22.645s-.365-1.059.551-1.368zM.783 7.834c-.55.195-.53.965-.472 1.136l3.611 10.676c.073.216.533.713.97.565l18.406-6.223c.33-.111.54-.618.428-.948L20.04 2.134c-.085-.251-.54-.63-1.007-.473L.783 7.833 2.27 9.207l3.076 9.097 16.485-5.575-3.077-9.097L2.271 9.207"
  />
  <path
    fill="#1b2838"
    d="m18.754 3.632-16.484 5.575 3.076 9.097 16.485-5.575-3.077-9.097z"
  />
</svg>
